<svg width="50" height="50" viewBox="0 0 50 50" fill="none" xmlns="http://www.w3.org/2000/svg">
<path d="M45.8327 25.0003C45.8327 23.8497 44.9 22.917 43.7494 22.917C42.5987 22.917 41.666 23.8497 41.666 25.0003H45.8327ZM24.9994 8.33366C26.15 8.33366 27.0827 7.40092 27.0827 6.25033C27.0827 5.09973 26.15 4.16699 24.9994 4.16699V8.33366ZM40.6244 41.667H9.37435V45.8337H40.6244V41.667ZM8.33268 40.6253V9.37533H4.16602V40.6253H8.33268ZM41.666 25.0003V40.6253H45.8327V25.0003H41.666ZM9.37435 8.33366H24.9994V4.16699H9.37435V8.33366ZM9.37435 41.667C8.79906 41.667 8.33268 41.2006 8.33268 40.6253H4.16602C4.16602 43.5018 6.49786 45.8337 9.37435 45.8337V41.667ZM40.6244 45.8337C43.5008 45.8337 45.8327 43.5018 45.8327 40.6253H41.666C41.666 41.2006 41.1997 41.667 40.6244 41.667V45.8337ZM8.33268 9.37533C8.33268 8.80003 8.79905 8.33366 9.37435 8.33366V4.16699C6.49787 4.16699 4.16602 6.49884 4.16602 9.37533H8.33268Z" fill="#0573E9"/>
<path d="M6.25 36.4582L17.3886 26.2478C18.1655 25.5356 19.352 25.5158 20.1522 26.2018L33.3333 37.4999" stroke="#0573E9" stroke-width="2" stroke-linecap="round" stroke-linejoin="round"/>
<path d="M29.166 32.2915L34.1384 27.3191C34.8714 26.5861 36.0321 26.5036 36.8615 27.1257L43.7494 32.2915" stroke="#0573E9" stroke-width="2" stroke-linecap="round" stroke-linejoin="round"/>
<path d="M38.541 18.75V6.25" stroke="#0573E9" stroke-width="2" stroke-linecap="round" stroke-linejoin="round"/>
<path d="M33.332 11.4583L38.5404 6.25L43.7487 11.4583" stroke="#0573E9" stroke-width="2" stroke-linecap="round" stroke-linejoin="round"/>
</svg>
