<svg width="20" height="17" viewBox="0 0 20 17" fill="none" xmlns="http://www.w3.org/2000/svg">
<path fill-rule="evenodd" clip-rule="evenodd" d="M5.06653 3.37746C5.06624 2.93385 5.15464 2.49453 5.32666 2.08463C5.49868 1.67473 5.75096 1.30229 6.06906 0.988605C6.38716 0.674922 6.76485 0.426152 7.18053 0.256519C7.5962 0.0868858 8.04171 -0.000281961 8.49157 6.85173e-07H11.5089C11.9588 -0.000281961 12.4043 0.0868858 12.82 0.256519C13.2356 0.426152 13.6133 0.674922 13.9314 0.988605C14.2495 1.30229 14.5018 1.67473 14.6738 2.08463C14.8459 2.49453 14.9343 2.93385 14.934 3.37746C14.9342 3.38513 14.9371 3.39248 14.9423 3.3982C14.9475 3.40391 14.9546 3.40761 14.9623 3.40863L17.3932 3.60212C18.4822 3.69027 19.3772 4.48357 19.581 5.54239C20.0986 8.24321 20.137 11.0121 19.6944 13.7259L19.5886 14.3752C19.4916 14.97 19.1951 15.5156 18.7465 15.9247C18.2979 16.3337 17.7231 16.5826 17.1141 16.6315L14.9961 16.8002C11.671 17.0666 8.32949 17.0666 5.00439 16.8002L2.88636 16.6315C2.27722 16.5825 1.70234 16.3335 1.25371 15.9242C0.80509 15.515 0.508662 14.9691 0.41187 14.3741L0.306132 13.7259C-0.137532 11.0117 -0.0982896 8.24371 0.4195 5.54239C0.518508 5.02751 0.786188 4.55892 1.18143 4.20859C1.57667 3.85827 2.0776 3.64558 2.6073 3.6032L5.03819 3.40863C5.0459 3.40761 5.05299 3.40391 5.05818 3.3982C5.06338 3.39248 5.06634 3.38513 5.06653 3.37746ZM10.0002 5.10596C8.91609 5.10596 7.87634 5.53066 7.10973 6.28662C6.34311 7.04258 5.91243 8.06789 5.91243 9.13698C5.91243 10.2061 6.34311 11.2314 7.10973 11.9873C7.87634 12.7433 8.91609 13.168 10.0002 13.168C11.0844 13.168 12.1242 12.7433 12.8908 11.9873C13.6574 11.2314 14.0881 10.2061 14.0881 9.13698C14.0881 8.06789 13.6574 7.04258 12.8908 6.28662C12.1242 5.53066 11.0844 5.10596 10.0002 5.10596Z" fill="black"/>
</svg>
